
<svg height="600" width="600" xmlns="http://www.w3.org/2000/svg" xmlns:svg="http://www.w3.org/2000/svg" xmlns:xlink="http://www.w3.org/1999/xlink">
	<polygon id="0-0" points="98,97.5 228,97.5 228,210.083302491977 98,210.083302491977 " style="fill: none; stroke-width: 7; background: black; stroke: #3c3c3c" />
	<polygon id="0-1" points="98,222.5 228,222.5 228,335.083302491977 98,335.083302491977 " style="stroke-width: 7; fill: none; stroke: #3c3c3c; background: black" />
	<polygon id="0-2" points="98,347.5 228,347.5 228,460.083302491977 98,460.083302491977 " style="stroke-width: 7; fill: none; stroke: #3c3c3c; background: black" />
	<polygon id="1-0" points="240,97.5 370,97.5 370,210.083302491977 240,210.083302491977 " style="stroke-width: 7; fill: none; stroke: #3c3c3c; background: black" />
	<polygon id="1-1" points="240,222.5 370,222.5 370,335.083302491977 240,335.083302491977 " style="stroke-width: 7; fill: none; stroke: #3c3c3c; background: black" />
	<polygon id="1-2" points="240,347.5 370,347.5 370,460.083302491977 240,460.083302491977 " style="background: black; stroke: #3c3c3c; fill: none; stroke-width: 7" />
	<polygon id="2-0" points="382,97.5 512,97.5 512,210.083302491977 382,210.083302491977 " style="fill: none; stroke-width: 7; background: black; stroke: #3c3c3c" />
	<polygon id="2-1" points="382,222.5 512,222.5 512,335.083302491977 382,335.083302491977 " style="stroke-width: 7; fill: none; stroke: #3c3c3c; background: black" />
	<polygon id="2-2" points="382,347.5 512,347.5 512,460.083302491977 382,460.083302491977 " style="fill: none; stroke-width: 7; background: black; stroke: #3c3c3c" />
	<text font-family="Myriad Pro Black" font-size="55" font-weight="bold" id="Cell_1-1center_Text" x="149.8" y="172.5">9</text>
	<text font-family="Myriad Pro Black" font-size="55" font-weight="bold" id="Cell_1-2center_Text" x="291.8" y="172.5">6</text>
	<text font-family="Myriad Pro Black" font-size="55" font-weight="bold" id="Cell_1-3center_Text" x="418.5" y="172.5">11</text>
	<text font-family="Myriad Pro Black" font-size="55" font-weight="bold" id="Cell_2-1center_Text" x="134.5" y="298.5">10</text>
	<text font-family="Myriad Pro Black" font-size="55" font-weight="bold" id="Cell_2-2center_Text" x="291.8" y="298.5">7</text>
	<text font-family="Myriad Pro Black" font-size="55" font-weight="bold" id="Cell_2-3center_Text" x="433.8" y="298.5">5</text>
	<text font-family="Myriad Pro Black" font-size="55" font-weight="bold" id="Cell_3-1center_Text" x="134.5" y="424.5">-2</text>
	<text font-family="Myriad Pro Black" font-size="55" font-weight="bold" id="Cell_3-2center_Text" x="291.8" y="424.5">4</text>
	<g id="Question_Mark" transform="translate(395,308.5),scale(0.5)">
		<path d="
M64.028,167.543
c0-5.316,1.706-10.703,5.12-16.16c3.414-5.456,8.395-9.976,14.942-13.557c6.547-3.581,14.187-5.372,22.917-5.372
c8.114,0,15.278,1.497,21.489,4.491s11.011,7.066,14.396,12.213c3.385,5.149,5.079,10.745,5.079,16.789
c0,4.756-0.966,8.926-2.897,12.507c-1.931,3.582-4.225,6.674-6.883,9.276c-2.658,2.602-7.429,6.981-14.313,13.138
c-1.902,1.735-3.428,3.26-4.575,4.575c-1.148,1.315-2,2.518-2.56,3.61c-0.56,1.091-0.993,2.183-1.301,3.274
c-0.308,1.091-0.77,3.008-1.385,5.751c-1.063,5.82-4.393,8.73-9.99,8.73c-2.91,0-5.358-0.952-7.345-2.854
c-1.987-1.902-2.98-4.729-2.98-8.478c0-4.701,0.727-8.772,2.183-12.213c1.455-3.441,3.385-6.464,5.793-9.066
c2.406-2.603,5.652-5.695,9.738-9.276c3.581-3.134,6.17-5.498,7.764-7.093c1.595-1.595,2.939-3.372,4.03-5.331
c1.091-1.959,1.637-4.085,1.637-6.38c0-4.477-1.665-8.255-4.995-11.332c-3.33-3.078-7.624-4.617-12.886-4.618
c-6.157,0-10.69,1.553-13.6,4.659s-5.372,7.682-7.387,13.725c-1.902,6.324-5.513,9.486-10.829,9.486
c-3.134,0-5.778-1.106-7.933-3.316C65.106,172.51,64.028,170.118,64.028,167.543z M104.993,259.546
c-3.414,0-6.394-1.106-8.94-3.316c-2.546-2.21-3.82-5.303-3.82-9.276c0-3.526,1.231-6.492,3.693-8.898s5.485-3.61,9.066-3.61
c3.525,0,6.491,1.204,8.898,3.61c2.406,2.406,3.61,5.372,3.61,8.898c0,3.918-1.259,6.995-3.777,9.234
C111.205,258.427,108.295,259.546,104.993,259.546L104.993,259.546z
" style="stroke-linecap: round; stroke-width: 2; stroke: #000000" />
		<path d="
M66.442,165.975
c-0.402-0.312,2.335-13.873,12.335-21.54c7.669-5.88,12.777-7.164,17.563-8.364c3.683-0.923,9.684-1.301,14.219-0.836
c0,0-10.023,3.719-14.266,5.271c-4.379,1.601-11.379,4.037-15.543,7.633C76.585,151.735,66.442,165.975,66.442,165.975z
" style="stroke: #000000; stroke-linecap: round; stroke-width: 2" />
		<path d="
M96.475,253.175
c0,0-5.241-9.331,2.785-14.406c7.454-4.714,12.732,1.087,12.732,1.087s-7.048,1.012-9.914,3.046
C98.522,245.425,96.475,253.175,96.475,253.175L96.475,253.175z
" style="stroke-width: 2; stroke-linecap: round; stroke: #000000" />
	</g>
	<!-- 
	Generated using the Perl SVG Module V2.59
	by Ronan Oger
	Info: http://www.roitsystems.com/
 -->
</svg>