
<svg height="600" width="600" xmlns="http://www.w3.org/2000/svg" xmlns:svg="http://www.w3.org/2000/svg" xmlns:xlink="http://www.w3.org/1999/xlink">
	<polygon id="Table" points="10,23 600,23 600,533.954988232819 10,533.954988232819 " style="stroke: skyblue; background: black; stroke-width: 7; fill: none" />
	<polygon id="1-1" points="26,35 156,35 156,147.583302491977 26,147.583302491977 " style="stroke: skyblue; background: black; stroke-width: 7; fill: none" />
	<polygon id="1-2" points="168,35 298,35 298,147.583302491977 168,147.583302491977 " style="stroke-width: 7; fill: none; background: black; stroke: skyblue" />
	<polygon id="1-3" points="310,35 440,35 440,147.583302491977 310,147.583302491977 " style="stroke: skyblue; background: black; stroke-width: 7; fill: none" />
	<polygon id="1-4" points="451,35 581,35 581,147.583302491977 451,147.583302491977 " style="stroke: skyblue; background: black; stroke-width: 7; fill: none" />
	<polygon id="2-1" points="25,159 157,159 157,273.315353299546 25,273.315353299546 " style="stroke: skyblue; background: black; fill: none; stroke-width: 7" />
	<polygon id="2-2" points="167,159 299,159 299,273.315353299546 167,273.315353299546 " style="stroke-width: 7; fill: none; background: black; stroke: skyblue" />
	<polygon id="2-3" points="309,159 441,159 441,273.315353299546 309,273.315353299546 " style="background: black; stroke-width: 7; fill: none; stroke: skyblue" />
	<polygon id="2-4" points="450,159 582,159 582,273.315353299546 450,273.315353299546 " style="stroke: skyblue; background: black; fill: none; stroke-width: 7" />
	<polygon id="3-1" points="25,284 157,284 157,398.315353299546 25,398.315353299546 " style="stroke: skyblue; fill: none; stroke-width: 7; background: black" />
	<polygon id="3-2" points="167,284 299,284 299,398.315353299546 167,398.315353299546 " style="stroke-width: 7; fill: none; background: black; stroke: skyblue" />
	<polygon id="3-3" points="309,284 441,284 441,398.315353299546 309,398.315353299546 " style="background: black; stroke-width: 7; fill: none; stroke: skyblue" />
	<polygon id="3-4" points="450,284 582,284 582,398.315353299546 450,398.315353299546 " style="stroke: skyblue; background: black; stroke-width: 7; fill: none" />
	<polygon id="4-1" points="25,409 157,409 157,523.315353299546 25,523.315353299546 " style="background: black; stroke-width: 7; fill: none; stroke: skyblue" />
	<polygon id="4-2" points="167,409 299,409 299,523.315353299546 167,523.315353299546 " style="stroke: skyblue; fill: none; stroke-width: 7; background: black" />
	<polygon id="4-3" points="309,409 441,409 441,523.315353299546 309,523.315353299546 " style="fill: none; stroke-width: 7; background: black; stroke: skyblue" />
	<polygon id="4-4" points="450,409 582,409 582,523.315353299546 450,523.315353299546 " style="stroke: skyblue; fill: none; stroke-width: 7; background: black" />
	<text font-family="Myriad Pro Black" font-size="55" font-weight="bold" id="Cell_1-1center_Text" x="53" y="110">30</text>
	<text font-family="Myriad Pro Black" font-size="55" font-weight="bold" id="Cell_1-2center_Text" x="195" y="110">30</text>
	<text font-family="Myriad Pro Black" font-size="55" font-weight="bold" id="Cell_1-3center_Text" x="337" y="110">30</text>
	<text font-family="Myriad Pro Black" font-size="55" font-weight="bold" id="Cell_1-4center_Text" x="479" y="110">30</text>
	<text font-family="Myriad Pro Black" font-size="55" font-weight="bold" id="Cell_2-1center_Text" x="53" y="236">30</text>
	<text font-family="Myriad Pro Black" font-size="55" font-weight="bold" id="Cell_2-2center_Text" x="195" y="236">30</text>
	<text font-family="Myriad Pro Black" font-size="55" font-weight="bold" id="Cell_2-3center_Text" x="337" y="236">30</text>
	<text font-family="Myriad Pro Black" font-size="55" font-weight="bold" id="Cell_2-4center_Text" x="479" y="236">30</text>
	<text font-family="Myriad Pro Black" font-size="55" font-weight="bold" id="Cell_3-1center_Text" x="53" y="362">30</text>
	<text font-family="Myriad Pro Black" font-size="55" font-weight="bold" id="Cell_3-2center_Text" x="195" y="362">30</text>
	<text font-family="Myriad Pro Black" font-size="55" font-weight="bold" id="Cell_3-3center_Text" x="337" y="362">30</text>
	<text font-family="Myriad Pro Black" font-size="55" font-weight="bold" id="Cell_3-4center_Text" x="479" y="362">30</text>
	<text font-family="Myriad Pro Black" font-size="55" font-weight="bold" id="Cell_4-1center_Text" x="53" y="488">30</text>
	<text font-family="Myriad Pro Black" font-size="55" font-weight="bold" id="Cell_4-2center_Text" x="195" y="488">30</text>
	<text font-family="Myriad Pro Black" font-size="55" font-weight="bold" id="Cell_4-3center_Text" x="337" y="488">30</text>
	<text font-family="Myriad Pro Black" font-size="55" font-weight="bold" id="Cell_4-4center_Text" x="479" y="488">30</text>
	<!-- 
	Generated using the Perl SVG Module V2.59
	by Ronan Oger
	Info: http://www.roitsystems.com/
 -->
</svg>