<?xml version="1.0" encoding="utf-8"?>
<!-- Generator: Adobe Illustrator 18.0.0, SVG Export Plug-In . SVG Version: 6.00 Build 0)  -->
<!DOCTYPE svg PUBLIC "-//W3C//DTD SVG 1.1//EN" "http://www.w3.org/Graphics/SVG/1.1/DTD/svg11.dtd">
<svg version="1.1" id="レイヤー_1" xmlns="http://www.w3.org/2000/svg" xmlns:xlink="http://www.w3.org/1999/xlink" x="0px"
	 y="0px" viewBox="0 0 600 600" enable-background="new 0 0 600 600" xml:space="preserve">
<title>blackQmrk</title>
<g>
	<title>Layer 1</title>
	<g id="layer1">
		<g id="g3648">
			<g id="text2816">
				<path id="path2821" stroke="#000000" stroke-width="2" stroke-linecap="round" d="M264.9,223.6c0-5.2,1.7-10.5,5-15.8
					c3.3-5.3,8.2-9.8,14.6-13.3c6.4-3.5,13.9-5.3,22.5-5.3c8,0,15,1.5,21.1,4.4c6.1,2.9,10.8,6.9,14.1,12c3.3,5,5,10.5,5,16.5
					c0,4.7-0.9,8.8-2.8,12.3c-1.9,3.5-4.1,6.5-6.7,9.1s-7.3,6.8-14,12.9c-1.9,1.7-3.4,3.2-4.5,4.5c-1.1,1.3-2,2.5-2.5,3.5
					c-0.5,1.1-1,2.1-1.3,3.2c-0.3,1.1-0.8,2.9-1.4,5.6c-1,5.7-4.3,8.6-9.8,8.6c-2.9,0-5.3-0.9-7.2-2.8c-1.9-1.9-2.9-4.6-2.9-8.3
					c0-4.6,0.7-8.6,2.1-12c1.4-3.4,3.3-6.3,5.7-8.9c2.4-2.6,5.5-5.6,9.5-9.1c3.5-3.1,6-5.4,7.6-7c1.6-1.6,2.9-3.3,4-5.2
					c1.1-1.9,1.6-4,1.6-6.3c0-4.4-1.6-8.1-4.9-11.1c-3.3-3-7.5-4.5-12.6-4.5c-6,0-10.5,1.5-13.3,4.6c-2.9,3-5.3,7.5-7.2,13.5
					c-1.9,6.2-5.4,9.3-10.6,9.3c-3.1,0-5.7-1.1-7.8-3.3C265.9,228.5,264.9,226.2,264.9,223.6z M305,313.8c-3.3,0-6.3-1.1-8.8-3.3
					c-2.5-2.2-3.7-5.2-3.7-9.1c0-3.5,1.2-6.4,3.6-8.7c2.4-2.4,5.4-3.5,8.9-3.5c3.5,0,6.4,1.2,8.7,3.5c2.4,2.4,3.5,5.3,3.5,8.7
					c0,3.8-1.2,6.9-3.7,9.1C311.1,312.7,308.2,313.8,305,313.8L305,313.8z"/>
			</g>
			<path id="path3634" stroke="#000000" stroke-width="2" stroke-linecap="round" d="M267.2,222.1c-0.4-0.3,2.3-13.6,12.1-21.1
				c7.5-5.8,12.5-7,17.2-8.2c3.6-0.9,9.5-1.3,13.9-0.8c0,0-9.8,3.6-14,5.2c-4.3,1.6-11.2,4-15.2,7.5
				C277.2,208.1,267.2,222.1,267.2,222.1z"/>
			<path id="path3636" stroke="#000000" stroke-width="2" stroke-linecap="round" d="M296.7,307.6c0,0-5.1-9.1,2.7-14.1
				c7.3-4.6,12.5,1.1,12.5,1.1s-6.9,1-9.7,3C298.7,300,296.7,307.6,296.7,307.6L296.7,307.6z"/>
		</g>
	</g>
</g>
</svg>
