<?xml version="1.0" encoding="iso-8859-1"?>
<!-- Generator: Adobe Illustrator 18.0.0, SVG Export Plug-In . SVG Version: 6.00 Build 0)  -->
<!DOCTYPE svg PUBLIC "-//W3C//DTD SVG 1.1//EN" "http://www.w3.org/Graphics/SVG/1.1/DTD/svg11.dtd">
<svg version="1.1" id="&#x30EC;&#x30A4;&#x30E4;&#x30FC;_1" xmlns:svg="http://www.w3.org/2000/svg"
	 xmlns="http://www.w3.org/2000/svg" xmlns:xlink="http://www.w3.org/1999/xlink" x="0px" y="0px" viewBox="0 0 600 600"
	 style="enable-background:new 0 0 600 600;" xml:space="preserve">
<g id="group_y">
	<circle id="Cell_1-1" style="fill:#FFFFFF;stroke:#0080FF;stroke-width:7;" cx="100" cy="100" r="53.55"/>
	<circle id="Cell_1-2" style="fill:#FFFFFF;stroke:#0080FF;stroke-width:7;" cx="300" cy="100" r="53.55"/>
	<circle id="Cell_1-3" style="fill:#FFFFFF;stroke:#0080FF;stroke-width:7;" cx="500" cy="100" r="53.55"/>
	<circle id="Cell_2-1" style="fill:#FFFFFF;stroke:#0080FF;stroke-width:7;" cx="100" cy="300" r="53.55"/>
	<circle id="Cell_2-2" style="fill:#FFFFFF;stroke:#0080FF;stroke-width:7;" cx="300" cy="300" r="53.55"/>
	<circle id="Cell_2-3" style="fill:#FFFFFF;stroke:#0080FF;stroke-width:7;" cx="500" cy="300" r="53.55"/>
	<circle id="Cell_3-1" style="fill:#FFFFFF;stroke:#0080FF;stroke-width:7;" cx="100" cy="500" r="53.55"/>
	<circle id="Cell_3-2" style="fill:#FFFFFF;stroke:#0080FF;stroke-width:7;" cx="300" cy="500" r="53.55"/>
	<circle id="Cell_3-3" style="fill:#FFFFFF;stroke:#0080FF;stroke-width:7;" cx="500" cy="500" r="53.55"/>
</g>
<g transform="translate(0, 0)">
	<title>Layer 1</title>
	<g id="layer1">
		<g id="g3648">
			<g id="text2816">
				<path id="path2821" style="stroke:#000000;stroke-width:2;stroke-linecap:round;" d="M264.85,223.643
					c0-5.212,1.673-10.493,5.02-15.843c3.347-5.349,8.23-9.78,14.649-13.291c6.419-3.511,13.909-5.267,22.468-5.267
					c7.955,0,14.978,1.468,21.068,4.403c6.09,2.935,10.795,6.927,14.114,11.974c3.319,5.048,4.979,10.534,4.979,16.46
					c0,4.663-0.947,8.751-2.84,12.262c-1.893,3.512-4.142,6.543-6.748,9.094s-7.283,6.844-14.032,12.88
					c-1.865,1.701-3.361,3.196-4.485,4.485c-1.125,1.289-1.961,2.469-2.51,3.539c-0.549,1.07-0.974,2.14-1.275,3.21
					c-0.302,1.07-0.755,2.949-1.358,5.638c-1.042,5.706-4.307,8.559-9.794,8.559c-2.853,0-5.253-0.933-7.201-2.798
					c-1.948-1.865-2.922-4.636-2.922-8.312c0-4.609,0.713-8.6,2.14-11.974c1.426-3.374,3.319-6.337,5.679-8.888
					c2.359-2.552,5.541-5.583,9.547-9.094c3.511-3.073,6.049-5.39,7.612-6.954c1.564-1.564,2.881-3.306,3.951-5.226
					c1.07-1.921,1.605-4.005,1.605-6.255c0-4.389-1.632-8.093-4.897-11.11c-3.265-3.018-7.475-4.526-12.633-4.527
					c-6.036,0-10.48,1.523-13.333,4.568c-2.853,3.045-5.267,7.531-7.242,13.456c-1.865,6.2-5.405,9.3-10.617,9.3
					c-3.073,0-5.665-1.084-7.777-3.251C265.907,228.513,264.85,226.167,264.85,223.643z M305.012,313.843
					c-3.347,0-6.269-1.084-8.765-3.251c-2.496-2.167-3.745-5.199-3.745-9.094c0-3.457,1.207-6.365,3.621-8.724
					c2.414-2.359,5.377-3.539,8.888-3.539c3.456,0,6.364,1.18,8.724,3.539c2.359,2.359,3.539,5.267,3.539,8.724
					c0,3.841-1.234,6.858-3.703,9.053C311.102,312.746,308.249,313.843,305.012,313.843L305.012,313.843z"/>
			</g>
			<path id="path3634" style="stroke:#000000;stroke-width:2;stroke-linecap:round;" d="M267.217,222.106
				c-0.394-0.306,2.289-13.601,12.093-21.118c7.519-5.765,12.526-7.024,17.219-8.2c3.611-0.905,9.494-1.275,13.94-0.82
				c0,0-9.826,3.646-13.986,5.168c-4.293,1.57-11.156,3.958-15.238,7.483C277.161,208.145,267.217,222.106,267.217,222.106z"/>
			<path id="path3636" style="stroke:#000000;stroke-width:2;stroke-linecap:round;" d="M296.661,307.597
				c0,0-5.138-9.148,2.73-14.124c7.308-4.622,12.482,1.066,12.482,1.066s-6.91,0.992-9.72,2.986
				C298.668,299.999,296.661,307.597,296.661,307.597L296.661,307.597z"/>
		</g>
	</g>
</g>
</svg>
